<svg width="76" height="34" viewBox="0 0 76 34" fill="none" xmlns="http://www.w3.org/2000/svg">
<g clip-path="url(#clip0_66_9603)">
<path d="M24.8707 28.3427C25.8748 28.3427 26.7533 27.708 26.9457 26.8179L26.268 26.7354C26.0923 27.3206 25.5317 27.7245 24.8707 27.7245C24.0089 27.7245 23.3647 27.0569 23.3647 26.0925C23.3563 25.1364 24.0173 24.4688 24.8791 24.4688C25.5234 24.4688 26.1007 24.8726 26.2597 25.4743L26.929 25.3837C26.7784 24.4935 25.9082 23.8506 24.8707 23.8506C23.599 23.8506 22.6702 24.7902 22.6702 26.0925C22.6619 27.3948 23.5906 28.3427 24.8707 28.3427ZM29.0001 28.1779H29.6946V24.6336H31.2174V24.0154H27.469V24.6336H29.0001V28.1779ZM34.3568 23.8506C33.6623 23.8506 33.1185 24.1473 32.8089 24.6501H32.7336V24.0154H32.0391V30.0736H32.7336V27.5597H32.8089C33.1185 28.0542 33.6874 28.3427 34.3652 28.3427C35.5952 28.3427 36.5407 27.3948 36.5407 26.0925C36.5407 24.7902 35.5868 23.8506 34.3568 23.8506ZM34.2815 24.4688C35.1852 24.4688 35.8462 25.1611 35.8462 26.0925C35.8462 27.0074 35.1852 27.7245 34.2815 27.7245C33.3695 27.7245 32.7085 27.0074 32.7085 26.0925C32.7085 25.1776 33.3695 24.4688 34.2815 24.4688ZM38.7914 28.3097C39.4691 28.3097 39.9628 28.046 40.264 27.5679H40.3393V28.1779H41.0337V25.4166C41.0337 24.4688 40.3393 23.8588 39.2432 23.8588C38.1806 23.8588 37.4861 24.4193 37.4861 25.3013H38.189C38.1806 24.782 38.5989 24.477 39.2348 24.477C39.9293 24.477 40.3393 24.8397 40.3393 25.4002V25.565L39.1679 25.7051C37.9129 25.8453 37.277 26.3893 37.277 27.1228C37.277 27.8399 37.8794 28.3097 38.7914 28.3097ZM38.8918 27.741C38.3228 27.741 37.9714 27.502 37.9714 27.1063C37.9714 26.7189 38.3061 26.3893 39.1679 26.2821L40.3393 26.1502V26.5211C40.3393 27.2217 39.7536 27.741 38.8918 27.741ZM41.7094 28.1779H42.4791L43.6923 26.4799H43.776L44.9892 28.1779H45.759L44.1693 26.0101L45.6753 24.0154H44.9307L43.776 25.565H43.6923L42.5377 24.0154H41.793L43.2991 26.0101L41.7094 28.1779ZM48.396 28.3427C49.718 28.3427 50.6634 27.4113 50.6634 26.0925C50.6634 24.782 49.718 23.8506 48.396 23.8506C47.0656 23.8506 46.1285 24.782 46.1285 26.0925C46.1285 27.4113 47.0656 28.3427 48.396 28.3427ZM48.396 27.7245C47.4756 27.7245 46.823 27.0404 46.823 26.0925C46.823 25.1529 47.4756 24.4688 48.396 24.4688C49.308 24.4688 49.969 25.1529 49.969 26.0925C49.969 27.0404 49.308 27.7245 48.396 27.7245ZM51.7229 28.1779H53.8732C54.6932 28.1779 55.2705 27.6833 55.2705 26.9745C55.2705 26.4469 54.9442 26.1255 54.5007 26.0348V25.9524C54.8605 25.8288 55.145 25.4991 55.145 25.054C55.145 24.4605 54.6011 24.0154 53.8397 24.0154H51.7229V28.1779ZM52.4174 25.7051V24.6006H53.7644C54.166 24.6006 54.4589 24.8562 54.4589 25.1611C54.4589 25.4661 54.166 25.7051 53.7644 25.7051H52.4174ZM52.4174 27.5926V26.2986H53.7561C54.2414 26.2986 54.576 26.5623 54.576 26.925C54.576 27.2877 54.2414 27.5926 53.7561 27.5926H52.4174ZM57.5107 28.3097C58.1885 28.3097 58.6821 28.046 58.9833 27.5679H59.0586V28.1779H59.7531V25.4166C59.7531 24.4688 59.0586 23.8588 57.9626 23.8588C56.9 23.8588 56.2055 24.4193 56.2055 25.3013H56.9083C56.9 24.782 57.3183 24.477 57.9542 24.477C58.6487 24.477 59.0586 24.8397 59.0586 25.4002V25.565L57.8873 25.7051C56.6322 25.8453 55.9963 26.3893 55.9963 27.1228C55.9963 27.8399 56.5987 28.3097 57.5107 28.3097ZM57.6112 27.741C57.0422 27.741 56.6908 27.502 56.6908 27.1063C56.6908 26.7189 57.0255 26.3893 57.8873 26.2821L59.0586 26.1502V26.5211C59.0586 27.2217 58.4729 27.741 57.6112 27.741ZM60.9558 28.1779H61.6503V26.381H64.1186V28.1779H64.813V24.0154H64.1186V25.7628H61.6503V24.0154H60.9558V28.1779ZM66.0953 28.1779H66.9403L69.1827 24.9963H69.2663V28.1779H69.9608V24.0154H69.1157L66.865 27.2053H66.7897V24.0154H66.0953V28.1779ZM73.3097 28.3427C74.2468 28.3427 75.0082 27.9141 75.3429 27.2053L74.7655 26.9168C74.5062 27.4113 73.9539 27.7245 73.3181 27.7245C72.4646 27.7245 71.8455 27.164 71.7451 26.3233H75.4851C75.4935 26.2326 75.4935 26.1337 75.4935 26.0513C75.4935 24.7737 74.5564 23.8506 73.2678 23.8506C71.9626 23.8506 71.0255 24.7737 71.0255 26.0431C71.0255 27.3783 71.9877 28.3427 73.3097 28.3427ZM71.7534 25.7216C71.8706 24.9716 72.4563 24.4688 73.2427 24.4688C74.0376 24.4688 74.64 24.9716 74.7572 25.7216H71.7534Z" fill="white"/>
<path d="M3.89943 15.5277C3.16106 15.5296 2.43837 15.7258 1.81496 16.0937C1.19155 16.4615 0.692904 16.986 0.376706 17.6063C0.0605096 18.2266 -0.0603164 18.9176 0.0282083 19.5991C0.116733 20.2806 0.410989 20.9249 0.876935 21.4574L10.8098 32.77C11.164 33.1789 11.618 33.5033 12.134 33.7163C12.6501 33.9292 13.2134 34.0247 13.7771 33.9946C14.9827 33.9344 16.0712 33.3348 16.7652 32.3489L37.3983 1.45462C37.4018 1.44946 37.4052 1.44436 37.4087 1.43932C37.6026 1.16296 37.5398 0.61528 37.1399 0.271222C37.0305 0.176739 36.9008 0.104151 36.7599 0.0579257C36.6188 0.0117008 36.4688 -0.00718138 36.3196 0.00244241C36.1704 0.0120662 36.025 0.0499924 35.8922 0.113884C35.759 0.177776 35.6419 0.266282 35.5471 0.373949C35.5398 0.382414 35.5321 0.390753 35.5241 0.398964L14.7154 22.2574C14.6363 22.3406 14.5401 22.4083 14.4325 22.4567C14.325 22.505 14.2081 22.533 14.0888 22.539C13.9695 22.545 13.8501 22.5289 13.7376 22.4916C13.625 22.4544 13.5216 22.3967 13.4332 22.3219L6.52714 16.479C5.80992 15.8678 4.87244 15.5283 3.89943 15.5277Z" fill="#5200D9"/>
<path d="M8.3823 28.662C8.59148 28.662 8.86759 28.6208 9.0684 28.5549V28.0026C8.90942 28.0521 8.69188 28.085 8.56638 28.085C8.16476 28.085 7.91375 27.8048 7.91375 27.4092V24.887H9.00146V24.343H7.91375L7.92212 22.9995H7.37827L7.21929 24.343H6.5332V24.887H7.21929V27.4339C7.21929 28.1675 7.67111 28.662 8.3823 28.662ZM10.1195 28.5054H10.814V26.2635C10.814 25.4392 11.2574 24.8787 11.8933 24.8787C12.0523 24.8787 12.3033 24.9117 12.5208 25.0024V24.3677C12.3953 24.3018 12.1945 24.2606 12.0021 24.2606C11.5335 24.2606 11.065 24.5243 10.8725 24.9035H10.7972V24.343H10.1195V28.5054ZM13.8307 23.5517C14.1235 23.5517 14.3244 23.3456 14.3244 23.0572C14.3244 22.7769 14.1235 22.5791 13.8307 22.5791C13.5379 22.5791 13.3287 22.7769 13.3287 23.0572C13.3287 23.3456 13.5379 23.5517 13.8307 23.5517ZM13.4793 28.5054H14.1737V24.343H13.4793V28.5054ZM17.8463 24.1781C17.1518 24.1781 16.6079 24.4749 16.2984 24.9776H16.2231V24.343H15.5286V30.4012H16.2231V27.8872H16.2984C16.6079 28.3818 17.1769 28.6703 17.8546 28.6703C19.0846 28.6703 20.03 27.7224 20.03 26.4201C20.03 25.1178 19.0762 24.1781 17.8463 24.1781ZM17.771 24.7963C18.6746 24.7963 19.3356 25.4887 19.3356 26.4201C19.3356 27.335 18.6746 28.0521 17.771 28.0521C16.859 28.0521 16.198 27.335 16.198 26.4201C16.198 25.5052 16.859 24.7963 17.771 24.7963Z" fill="white"/>
</g>
<defs>
<clipPath id="clip0_66_9603">
<rect width="76" height="34" fill="white"/>
</clipPath>
</defs>
</svg>
